<?xml version="1.0"?><svg width="352.67197" height="226.70265" xmlns="http://www.w3.org/2000/svg">

 <metadata id="metadata1916">image/svg+xml</metadata>
 <g>
  <title>Layer 1</title>
  <g id="layer1">
   <g id="g1950">
    <path fill="fuchsia" fill-opacity="0.941176" stroke-width="1.017746" stroke-miterlimit="4" d="m340.173889,63.771286c4.194824,1.778351 8.044556,3.652603 8.94574,6.409439c1.117493,3.418427 0.851013,5.023071 -1.543945,8.963364c-3.835022,6.309402 -7.838684,7.614075 -13.936096,4.542191c-1.769409,-0.891434 -3.794922,-1.318069 -5.332031,-1.217224c-2.389954,0.156815 -7.943115,1.987701 -11.651123,3.851654c-2.765015,1.389969 -7.872559,1.29512 -10.452759,-0.210373c-1.645142,-0.959869 -2.305664,-1.949875 -2.671814,-4.058395c-0.429138,-2.470566 -0.273926,-3.169144 1.500488,-6.099701c2.27002,-3.748993 4.719116,-5.957291 8.072083,-7.291122c1.267029,-0.503998 2.089294,-1.538467 2.16217,-2.150299c0.298218,-2.503296 2.750183,-5.86322 6.303589,-6.446777c1.880615,-0.308853 3.395386,-0.707428 6.204163,-0.978363c1.929199,-0.073242 6.203186,-0.004501 7.699463,1.205917c1.286011,1.040253 2.117065,2.384628 4.700073,3.479691z" id="path1900"/>
    <path fill="black" fill-opacity="0.941176" stroke-width="1.017746" stroke-miterlimit="4" d="m264.5,0.5c-2.818604,0.012787 -4.884766,0.132172 -5.1875,0.375c-0.936584,0.751297 0.45224,2.557953 2.125,2.78125c2.632355,0.351334 7.153198,3.298492 7.84375,5.125c0.84317,2.230042 -0.606354,6.605499 -3.25,9.78125c-4.296234,5.161018 -4.286743,5.159401 -16.21875,4.15625c-9.608109,-0.807793 -11.003387,-0.775406 -13.75,0.40625l-3.0625,1.3125l-2.75,-1.9375c-2.443634,-1.735863 -8.859222,-5.59256 -10.84375,-6.625c-1.967575,-1.023598 -5.660736,-2.519569 -7.84375,-2.8125c-0.907059,-0.121712 -4.103226,-0.819847 -7.09375,-1.15625c-4.809204,-0.542267 -6.101303,-0.567093 -12,-0.96875c-4.727295,-0.321869 -9.531189,0.274452 -10.71875,0.4375c-1.569717,0.215523 -3.623047,0.252014 -6.1875,0.5625c-2.126419,0.257446 -3.849945,0.554482 -5.3125,1.03125c-1.916107,0.624603 -3.05397,0.997841 -5.59375,2.5625c-4.527435,2.789162 -11.154953,6.431999 -10.75,8.09375c0.761322,3.124092 7.849777,5.624107 22.875,8c8.057419,1.274101 15.030167,5.449707 12.15625,7.3125c-1.442123,0.934731 -12.348312,2.001785 -18.59375,1.78125c-6.212219,-0.219376 -14.488205,0.426773 -22.53125,1.8125c-6.070724,1.045914 -20.267532,6.336441 -25.3125,9.40625c-5.318008,3.235992 -16.728851,12.9729 -22.84375,19.46875c-2.599167,2.761078 -8.90387,12.554611 -11.125,17.34375c-2.970001,6.403839 -3.451431,7.856712 -4.40625,12.53125c-0.542374,2.655312 -1.442719,6.072212 -1.96875,7.5625c-0.526077,1.490242 -1.43602,5.931892 -2.0625,9.875c-0.62645,3.943138 -1.414749,7.653458 -1.9375,7.75c-11.827621,2.184631 -5.406174,-1.031723 -5.125,-2.375c0.361328,-1.726318 3.570938,-6.749893 1.59375,-12.8125c-1.083298,-3.321693 -5.283279,-8.067757 -9.125,-9.53125c-3.549683,-1.352242 -5.867294,-1.005859 -7.9375,-1c-5.120239,0.014458 -9.374344,4.265007 -12.15625,9.75c-2.615005,5.155983 -1.653793,11.500633 1.5625,16.53125c1.888718,2.954056 2.026901,4.627426 0.09375,5c-0.754807,0.145493 -4.440811,1.022705 -7.75,0.1875c-4.650574,-1.173752 -6.592133,-1.828964 -8.6875,-3.15625c-1.501755,-0.951218 -4.130737,-3.179451 -5.03125,-4.28125c-2.311554,-2.828232 -3.876968,-4.489288 -4.96875,-6.8125c-1.155228,-2.458153 -1.936676,-5.317802 -3.375,-7.3125c-2.031082,-2.81675 -5.481247,-6.224091 -5.78125,-6.46875c-0.048843,-0.039848 -5.684769,-4.193901 -6.84375,-4.625c-3.86795,-1.438744 -3.950546,-1.483482 -4.09375,-0.28125c-0.251312,2.10984 1.201462,11.534264 2.5625,14.25c0.777405,1.551231 6.144287,12.085831 10.1875,15.75c2.121964,1.923035 5.023254,4.217468 6.28125,5.34375c1.257996,1.126282 5.323044,3.330215 8.0625,4.53125c5.249435,2.301453 18.993896,6.016754 27.78125,0.40625c1.999176,-1.276428 3.129654,-0.837616 8.375,-0.28125c3.746658,0.397385 7.44371,1.049316 8.15625,1.4375c0.71257,0.388184 3.561386,0.675705 4.40625,1.34375c2.013641,1.592209 2.983124,3.295944 6.0625,14.1875c1.566711,5.541275 7.716965,17.242386 12.125,23c5.160965,6.741013 6.347794,7.869858 9.6875,9.21875c5.077652,2.050797 11.204826,4.177185 15.09375,5.25c9.763824,2.693497 12.594238,3.900986 17.78125,7.59375l5.375,3.84375l7.8125,0.96875c10.312103,1.29155 11.781555,2.255066 14.15625,9.03125c0.964523,2.752289 2.075912,5.048462 2.4375,5.09375c0.361572,0.045273 1.871384,-0.210495 3.34375,-0.5625c7.753998,-1.853958 25.557678,0.865036 30.96875,4.71875l2.53125,1.78125l1.40625,-1.28125c0.950943,-0.899796 1.480057,-2.490646 1.8125,-5.28125c0.426743,-3.582382 0.671753,-4.072403 2.28125,-4.59375c1.289688,-0.417755 1.864639,-1.101379 2.03125,-2.5c0.037811,-0.317352 -0.117096,-0.776367 -0.3125,-1.3125c0.067551,-0.928619 0.014755,-1.083054 -0.28125,-0.625c-1.410339,-3.153397 -5.453873,-8.591766 -9.21875,-12.53125c-1.681686,-1.759644 -3.260635,-3.25032 -4.53125,-4.03125c-2.731857,-1.678955 -3.283188,-2.235443 -2.3125,-2.5c0.779144,-0.212326 2.653824,0.550217 4.875,2.03125c3.467529,2.312042 3.619263,2.349564 6,1.53125c1.35228,-0.464798 3.503967,-0.722473 4.78125,-0.5625c1.277298,0.159973 3.886414,0.177689 5.8125,0c4.406113,-0.406418 9.735855,1.266769 14.875,4.78125c2.007217,1.372635 3.845947,2.562698 4.09375,2.59375c0.247787,0.031036 0.492615,-2.168396 0.625,-4.875l0.28125,-4.90625l2.875,0.375c1.899765,0.237946 3.524963,-0.094437 4.6875,-0.875l1.75,-1.1875l-4.65625,-5.90625c-2.724609,-3.465118 -4.565659,-6.467499 -4.46875,-7.28125c0.090836,-0.762634 2.077072,-3.026825 4.40625,-5.0625c2.329193,-2.035736 4.317734,-4.264389 4.40625,-4.9375c0.276794,-2.104904 3.496857,-6.929581 6.28125,-9.40625c3.146698,-2.798935 4.903137,-5.713455 6.09375,-10.21875c1.589996,-6.016815 4.562103,-9.896164 10.4375,-13.59375c2.938965,-1.849594 6.074493,-3.945374 6.9375,-4.625c2.182373,-1.718742 7.244812,-4.391487 8.125,-4.28125c0.401398,0.050278 1.165375,-0.338402 1.6875,-0.84375c0.522156,-0.505348 3.441406,-1.747818 6.46875,-2.78125c4.514954,-1.541222 7.00412,-3.101997 13.875,-8.53125c4.607025,-3.640388 10.366608,-7.764641 12.8125,-9.1875c2.445892,-1.422859 7.701355,-5.235191 11.6875,-8.5c3.986145,-3.264778 8.965546,-6.702873 11.03125,-7.59375c7.900238,-3.407249 13.065277,-10.721252 11.53125,-16.3125c-0.739014,-2.693733 -3.51825,-6.309219 -5.53125,-7.15625c-0.634186,-0.266869 -2.257874,-0.843994 -3.59375,-1.25c-1.335876,-0.406029 -3.154083,-1.408211 -4.03125,-2.3125c-0.877167,-0.904251 -2.472778,-2.057678 -3.5625,-2.53125c-1.403534,-0.609901 -7.216156,-1.372177 -12.8125,-0.71875c-2.586975,0.302048 -3.71347,-0.851318 -7.0625,-1.5c-3.433441,-0.665031 -6.047577,-1.149704 -8.46875,-2.0625l-4.40625,-1.65625l-0.375,-3.21875c-0.283203,-2.421768 -0.054871,-3.964111 0.9375,-6.53125c1.110596,-2.872871 2.111053,-4.020279 6.90625,-7.5c2.156433,-1.564865 3.654114,-2.845581 4.71875,-4c0.094269,-0.044556 0.16333,-0.148193 0.25,-0.21875c0.032104,-0.036652 0.062653,-0.057281 0.09375,-0.09375c0.114166,-0.108856 0.204468,-0.213257 0.28125,-0.34375c1.434998,-1.8442 1.630981,-3.501358 1.15625,-5.9375c-0.271667,-1.393967 -1.547699,-4.301239 -3.375,-6c-3.047211,-2.83287 -4.194855,-3.501907 -10.59375,-6.09375l0.25,-0.03125l-0.65625,-0.0625c-0.843048,-0.282028 -1.437286,-0.536949 -2.46875,-0.875c-1.596344,-0.523232 -3.683044,-1.90271 -4.9375,-3.34375c-3.617828,-4.155975 -5.827972,-5.368195 -12.03125,-6.46875c-0.631561,-0.112045 -1.4487,-0.184555 -2.40625,-0.28125c-4.18924,-0.423035 -10.989807,-0.708817 -15.6875,-0.6875zm-203.53125,113c0.10025,0.003868 0.193466,0.040382 0.3125,0.0625c1.587204,0.294907 2.887589,1.49324 3.40625,3.40625c0.484512,1.787193 0.369003,2.367493 -0.71875,3.6875c-1.981842,2.4049 -2.89566,2.266876 -4.90625,0.84375c-3.529175,-2.497978 -3.528381,-5.594269 -0.09375,-7.1875c0.964447,-0.447372 1.298218,-0.839607 2,-0.8125z" id="path1896"/>
    <path fill="white" fill-opacity="0.941176" stroke-width="1.017746" stroke-miterlimit="4" id="path1926" d="m290.224365,37.836838c3.638306,-2.567978 5.120972,0.866348 4.224976,0.983231c-4.259888,0.555588 -4.933228,5.143738 -5.436584,7.720306c-0.769714,3.939743 -0.889832,3.111191 -2.454834,4.08403c-2.794312,1.736938 -3.782654,1.268387 -3.427673,-1.711258c0.289185,-2.427658 6.151001,-11.573181 7.094116,-11.076309zm-26.328674,7.904221c0.361328,-0.170883 2.613159,1.434677 3.30426,2.340561c1.169922,1.533508 1.632996,4.050797 -0.034485,3.288284c-1.111633,-0.508347 -1.845215,2.62085 -2.004822,3.961014c-0.191711,1.609131 -0.889526,2.843018 -1.983643,3.658417c-2.569092,1.914581 -3.443726,1.421722 -3.068604,-1.727295c0.335144,-2.813553 2.595154,-10.957382 3.787292,-11.520981z"/>
    <path fill="#ff0000" stroke-width="1.017746" stroke-miterlimit="4" id="path1892" d="m312.158142,57.524765c1.529724,0.34346 2.449951,0.570389 2.887695,1.298996c0.823181,1.370087 0.636597,1.97261 -0.553711,3.417084c-0.699707,0.849091 -1.274414,2.589813 -1.783875,2.84874c-1.636108,0.831345 -3.500122,2.297089 -5.633118,4.708771c0,0 -2.315613,2.443573 -3.802856,4.683853c-1.487305,2.240234 -2.146301,4.277206 -2.146301,4.277206c-0.870544,5.138672 -0.853333,5.213043 1.01593,6.964294c2.346069,2.197968 9.359619,3.945816 12.953186,3.209503c1.359924,-0.278656 3.498108,-1.140442 4.810425,-1.900345c1.312256,-0.759903 4.287292,-1.838593 6.597473,-2.409058c4.140076,-1.022385 4.255066,-1.014587 6.246399,0.538147c1.111206,0.86644 2.09375,2.004501 2.198547,2.534012c0.324646,1.640503 -8.262268,7.367081 -12.935303,8.635468c-9.758789,2.648804 -14.565491,4.458313 -20.013672,4.086212c-2.349243,-0.158981 -4.902954,-0.75592 -7.471558,-1.596542c-2.568665,-0.840637 -5.152222,-1.924927 -7.561279,-3.05864c-3.017334,-1.419998 -7.652344,-6.692245 -13.513489,-8.356995c-0.962952,-0.273499 -5.816895,-0.547073 -6.845215,1.804657c-1.93457,4.424118 1.447876,11.471268 8.525879,2.031998c0.678406,-0.904739 15.920105,15.228912 32.154724,10.753632c2.240417,-0.617569 5.269653,-0.74295 6.66156,-0.447601l2.552307,0.563843l-5.657654,3.015167c-3.105286,1.643936 -6.850586,3.243332 -8.346069,3.594086c-7.841248,1.839172 -10.556458,2.15773 -14.479187,1.605057c-4.181885,-0.589188 -4.28772,-0.583023 -7.573181,2.103729c-1.841675,1.506073 -3.213379,2.950638 -3.003662,3.225449c0.209656,0.274841 1.906982,0.192841 3.774231,-0.198761c3.941895,-0.826767 17.80896,-1.830215 18.196167,-1.322647c0.528625,0.692917 -3.443726,2.784958 -9.778503,5.123962c-3.571655,1.318756 -10.334412,4.4375 -14.999512,6.97287c-4.6651,2.53537 -9.75354,5.131927 -11.279419,5.729553c-3.514038,1.376251 -5.607605,4.815369 -7.559402,12.483124c-1.800659,7.073883 -3.568787,10.332672 -7.578217,13.640625c-2.157074,1.779694 -3.66217,3.723175 -4.739716,6.304443c-3.000183,7.18692 -14.935486,14.401978 -24.821472,14.96051c-2.477081,0.139954 -5.440002,0.33197 -6.537048,0.402161c-2.311676,0.147827 -9.218292,-2.311096 -9.824097,-3.489105c-0.226318,-0.440125 -0.313019,-1.821381 -0.169678,-3.073486c0.208984,-1.825775 0.762604,-2.504181 2.666077,-3.389832c3.025543,-1.407806 4.847748,-1.15036 6.855835,0.919708c1.300262,1.340393 1.860748,1.546539 3.088715,1.05835c1.41922,-0.564178 1.715759,-1.602264 0.981995,-2.746155c-0.101471,-0.158203 -0.160583,-0.302155 -0.301788,-0.465118c-0.011353,-0.011597 -0.046814,0.004272 -0.058655,-0.007324c-0.099884,-0.113037 -0.256042,-0.237549 -0.374817,-0.352173c-0.356262,-0.343872 -0.776123,-0.729462 -1.300293,-1.078522c-3.056244,-2.035156 -2.357605,-2.825287 3.660583,-4.242004c5.044037,-1.187469 9.794678,-3.108154 13.567078,-5.443024c1.433594,-0.887299 4.151367,-2.100067 6.039581,-2.723145c5.760376,-1.900787 14.105927,-10.345337 14.691956,-14.8862c0.509125,-3.945007 -2.870148,-2.391663 -7.942596,3.705688c-2.42276,2.912231 -3.882629,3.888397 -8.282043,5.555542c-5.535522,2.097687 -7.396698,2.108185 -3.987427,-0.011047c1.086884,-0.675629 2.041534,-1.645294 2.097839,-2.118011c0.056305,-0.472687 0.991547,-1.792938 2.080811,-2.974762c2.192078,-2.378326 2.914307,-5.312195 1.370239,-5.505585c-0.539642,-0.067566 -2.149872,1.091553 -3.577271,2.543182c-1.427399,1.45163 -3.776428,3.575439 -5.271667,4.772736c-1.495209,1.197327 -3.50592,3.205017 -4.458954,4.447235c-2.399994,3.128357 -7.682709,7.156891 -8.11908,6.186401c-0.194153,-0.431763 0.717194,-2.368225 1.996674,-4.267242c1.720001,-2.552826 2.432037,-4.449677 2.772644,-7.283356c0.116516,-0.969086 0.181183,-1.766479 0.169281,-2.420593c-0.002106,-0.116364 -0.01001,-0.262512 -0.015656,-0.368225l0.150452,-1.263123l-0.261963,0.699738c-0.22522,-1.455841 -0.898651,-1.19989 -1.65274,1.380188c-2.038116,6.973419 -2.902649,8.680573 -5.460205,10.853638c-1.461853,1.242096 -3.407959,3.278259 -4.348816,4.522034c-0.940826,1.243774 -2.985687,3.209045 -4.510437,4.37973c-1.524719,1.170654 -3.34436,3.053467 -4.063995,4.130432c-0.719635,1.076965 -2.883667,3.567413 -4.829712,5.560638c-3.154877,3.231293 -3.840973,3.608948 -6.052582,3.33194c-1.796722,-0.225037 -3.88504,0.38208 -7.528839,2.231384c-4.678284,2.374298 -5.291321,2.509155 -9.4646,1.988922c-3.39801,-0.423584 -5.10556,-0.265076 -7.042114,0.644135c-6.466125,3.035797 -15.890747,3.151306 -21.702637,0.27301c-4.150238,-2.055359 -7.708588,-8.254608 -7.202789,-12.500671c0.379456,-3.185516 1.557526,-3.908661 3.731781,-2.340698c1.816986,1.310394 2.069305,0.933807 1.409576,-1.837921c-0.732391,-3.077118 0.341156,-3.918091 2.764557,-2.217651c2.506989,1.759125 6.797241,2.116608 11.723114,1.040955c3.431732,-0.749359 4.512054,-0.719147 5.996124,0.140564c1.512787,0.876312 2.026123,0.88681 3.276367,-0.016968c2.23938,-1.618652 2.678528,-6.870972 0.858887,-10.209015c-3.041473,-5.579498 -3.529785,-7.001221 -3.812225,-10.977203c-0.338928,-4.771057 1.226868,-10.497925 3.360168,-12.215515c0.711761,-0.573059 2.204285,-2.053223 3.252625,-3.316345c1.04837,-1.263153 3.316376,-2.887634 5.069702,-3.577148c1.753387,-0.689484 4.252258,-2.451111 5.589142,-3.939392c2.485565,-2.767075 3.924072,-3.37146 9.297577,-4.085373c4.302399,-0.571625 12.276093,-6.845718 13.399231,-10.530807c1.242432,-4.076401 0.052002,-4.686279 -2.979919,-1.472031c-3.548584,3.761932 -9.446777,7.7005 -13.901154,9.247025c-2.194611,0.761948 -6.184601,3.232178 -9.775848,6.100998c-3.337769,2.666397 -6.296906,4.82753 -6.524963,4.798935c-0.900574,-0.112793 -1.827454,-4.319733 -1.8255,-8.164505c0.001831,-3.577179 -0.27356,-4.381592 -2.408051,-6.772369c-1.330505,-1.490189 -3.249298,-3.002457 -4.245789,-3.339844c-1.241821,-0.420486 -2.228607,-1.575775 -3.073914,-3.681427c-1.471741,-3.66626 -3.256531,-3.983841 -3.960083,-0.740189c-0.505402,2.330048 0.637695,3.958282 5.768585,8.047913c3.184326,2.538132 4.986389,6.59877 5.42868,12.400574c0.311157,4.080963 0.150879,4.608429 -2.195038,9.431244c-2.125214,4.368988 -2.518494,5.929626 -2.807617,10.575409c-0.301758,4.849701 -0.151062,5.883728 1.630737,9.299957c1.10025,2.109497 2.395691,4.937103 2.883148,6.282471c1.271027,3.508179 -0.146942,4.496368 -5.772247,3.977509c-2.352936,-0.217041 -5.554962,-0.100006 -7.116455,0.268524c-3.601898,0.850159 -5.723358,-0.064667 -9.246033,-3.843994c-2.745026,-2.945038 -3.018127,-2.894318 -3.891602,0.184082c-0.363312,1.280457 -1.403381,1.892578 -3.790405,2.333344c-1.515259,0.279755 -1.785828,2.378204 -1.093079,7.676849c1.115356,8.531372 3.936707,13.662903 8.662933,15.735809c4.441589,1.94809 16.565521,3.239929 20.221405,2.166412c1.546234,-0.454071 5.315308,-1.178741 8.344269,-1.579865l5.502655,-0.714844l3.737518,5.107544l3.686035,5.040039l5.193237,1.382996c3.942657,1.022186 6.179596,2.057434 9.409027,4.474854c5.30899,3.974182 11.399597,11.530487 10.583435,13.107239c-0.817902,1.58017 -2.31369,1.201782 -6.2276,-1.695648c-0.976532,-0.7229 -1.942413,-1.29245 -2.826752,-1.758087c-2.115356,-1.11377 -3.752716,-1.481659 -3.857117,-0.605164c-0.039459,0.331238 1.263763,1.310028 2.893921,2.193787c3.657562,1.98291 6.416077,6.61087 6.001404,10.091553c-0.347107,2.914001 -1.535645,3.307007 -4.642944,1.494019c-5.710907,-3.332092 -19.462128,-5.599304 -27.088409,-4.491547l-4.901764,0.66803l-1.155701,-1.792969c-0.639313,-1.00293 -1.810577,-3.184235 -2.637329,-4.847656c-2.583313,-5.197571 -3.858429,-5.852356 -13.154175,-7.01947l-8.204956,-1.088684l-6.029694,-4.356873c-5.253113,-3.844482 -6.677887,-4.545135 -11.075592,-5.477203c-9.344727,-1.98053 -16.0448,-4.642853 -22.240356,-8.706909c-6.036804,-3.95993 -8.462494,-6.626556 -12.572021,-13.905701c-2.479462,-4.391785 -7.526276,-18.458069 -8.04364,-22.434235c-0.390594,-3.001678 -2.351105,-6.268066 -4.961609,-7.894165c-1.768738,-1.101746 -3.726746,-1.297302 -7.034576,-1.849396l-0.058655,-0.007355c-1.1875,-0.354523 -2.422333,-0.702759 -3.858459,-1.093719c-2.716095,-0.73941 -5.944092,-1.909576 -7.131653,-2.602478c-3.512848,-2.049591 -9.82962,-9.172302 -10.757019,-11.098999c-1.055328,-2.192444 -1.868225,-7.193115 -1.236816,-9.395386c0.749268,-2.61322 1.100159,-4.179062 3.99176,-6.889359c2.361084,-2.213013 4.569794,-3.705017 7.8461,-3.386871c3.640594,0.353561 5.520264,1.100739 7.872742,2.87001c4.486206,3.374023 6.205963,7.952072 4.62439,13.757721c-0.9823,3.605927 -4.525146,6.52002 -6.990234,5.315948c-0.96994,-0.473724 0.320709,-1.719818 1.593231,-3.489044c1.978455,-2.750824 3.110077,-3.738556 0.79187,-7.790207c-1.83606,-3.208908 -4.107574,-3.390762 -6.669739,-3.71167c-2.256958,-0.282669 -2.700867,0.319199 -4.7034,1.874466c-3.619049,2.810776 -3.633514,6.068192 -0.828888,10.45697c2.804657,4.388794 11.143982,6.63855 11.143982,6.63855c6.03717,0.864288 13.094116,-0.416107 13.690765,-0.720001c0.815521,-0.415344 1.431702,-2.669647 2.472717,-9.762726c0.746674,-5.087799 1.852692,-11.021973 2.463257,-13.182434c0.610626,-2.160477 1.62561,-5.850204 2.286407,-8.198898c1.119324,-3.978409 7.625336,-15.429688 10.022644,-17.668655c0.550934,-0.514542 1.28067,-1.703552 1.627228,-2.665314c0.346649,-0.961761 2.262878,-3.747177 4.307617,-6.175446c10.593964,-12.581009 22.802063,-19.869141 41.52124,-24.711655c8.588287,-2.221741 14.165131,-2.701569 31.422028,-2.90152c4.179138,-0.048447 9.452637,-0.486664 11.724915,-0.973297c3.811371,-0.816269 4.323608,-0.819885 6.495392,0.44725c1.294769,0.755463 2.862122,2.044601 3.533356,2.823303c1.770813,2.054398 6.709564,4.442017 9.959747,4.849091c6.268799,0.785126 10.1987,-1.403473 12.476288,-4.082275c2.308807,-2.71553 3.487823,-4.435013 4.292419,-5.311661c1.772858,-1.931702 4.584625,-5.388138 5.566315,-6.183243c0.787384,-0.637711 1.703735,-3.401047 2.975494,-5.487656c1.90741,-3.129623 2.903015,-3.999146 5.527771,-4.923798c2.865875,-1.009552 3.515381,-0.959412 6.765869,0.175919c2.384918,0.832977 4.043854,1.082901 4.912933,0.737411c0.723328,-0.287552 3.819,-0.254227 6.890335,0.130447c4.620544,0.57872 6.28772,0.463104 9.424255,-0.650986c2.127014,-0.755539 4.592224,-1.140915 5.641479,-0.880585c1.62793,0.403915 2.778503,0.633408 3.952332,2.316452c1.148743,1.647049 2.690491,2.528229 5.337524,5.157608c2.440369,2.424072 5.937073,2.957672 6.109863,3.184143c0.172791,0.226456 -0.242004,0.873657 -0.890198,1.475677c-2.876648,2.671982 -5.941223,8.98764 -6.538025,13.404617c-0.506104,3.745743 -0.832031,4.606934 -2.330261,5.568466c-2.340759,1.502304 -4.186584,1.150894 -4.546631,-0.813644c-0.404114,-2.204529 -6.31842,-12.019012 -10.120667,-11.587997c-1.124451,0.127457 -2.448792,1.577209 -3.284607,3.522171c-1.206482,2.807495 -1.767883,6.060455 -2.080933,8.629089c-0.627686,5.154327 -1.626831,7.503098 -2.637009,8.643326c-1.513184,1.707932 -1.988129,3.29158 -1.002136,3.4151c0.340332,0.042648 2.967026,-0.964157 5.857773,-2.196487c5.99823,-2.557037 12.225708,-3.998459 15.433838,-3.62204c1.863586,0.218658 2.421692,-0.155518 3.84906,-2.325989c1.985352,-3.018997 4.154297,-4.300552 11.283936,-6.766769c5.881226,-2.034393 6.930664,-2.089081 7.321045,-0.487091c0.243652,0.999802 -2.354004,3.898438 -6.868896,7.685989c-3.048767,2.557709 -2.16626,3.984955 1.293945,1.834076c1.025879,-0.637695 2.651245,-1.844849 3.188721,-2.981888c0.486572,-1.02919 2.058228,-2.662857 2.720947,-2.832642c1.756165,-0.449997 1.062744,2.835983 -0.54364,4.350433c-0.686035,0.646851 -2.067871,1.922638 -2.963623,3.084183c-2.108887,2.734787 -2.108154,2.921371 0.146851,2.765427c0.634766,-0.0439 2.549438,-1.752853 4.029297,-4.167801c1.463989,-2.389008 2.494141,-5.484268 2.952332,-5.526932c1.819336,-0.169495 1.57312,2.092422 0.202942,4.973877c-0.554382,1.165955 -2.015869,2.382004 -2.444519,3.376373c-0.630737,1.463104 -2.565674,2.288269 -2.19635,3.094055c0.728943,1.590149 4.929871,-1.459213 6.025085,-4.409531c1.292847,-3.482666 1.234375,-4.870789 4.308655,-5.412674c1.350891,-0.238083 2.659851,-0.324432 3.856567,-0.05574zm-96.050858,-10.23819c-2.243988,1.090164 -4.897247,1.539764 -9.092529,0.395462c-2.851715,-0.777832 -5.196045,-1.903122 -6.142975,-2.90596c-0.842224,-0.891922 -2.332062,-2.25061 -3.328705,-3.04184c-0.996643,-0.791229 -3.099701,-2.729172 -4.666199,-4.308182c-1.566559,-1.57901 -3.207123,-3.166946 -3.630524,-3.506958c-1.678558,-1.347977 -11.11438,-4.723358 -12.788361,-4.592911c-3.53952,0.275833 -17.949677,-2.230042 -1.113434,-3.815918c4.102661,-0.386459 5.31131,-0.963745 11.506714,1.027618c1.539948,0.49498 4.653534,2.17981 6.556244,3.934448c1.037659,0.956894 2.43866,1.41684 3.706451,2.130493c1.817444,1.023041 4.062897,2.063782 6.809113,3.05043c3.613739,1.29837 6.121765,1.79335 8.21701,1.747925c1.588043,-0.034409 5.359192,0.872574 7.580933,0.443085c9.095154,-1.758163 3.008789,2.883087 1.406555,4.490677c-2.635345,2.644165 -2.922791,3.932632 -5.020294,4.95163zm2.116852,-28.844315c2.376984,1.205246 11.902252,6.257401 12.312714,8.195145c0.443085,2.091751 -1.054321,4.796844 -3.500732,6.39859c-3.036987,1.988449 -8.798615,2.706985 -15.592346,1.953979c-5.990784,-0.663986 -7.58075,-1.102966 -12.0961,-3.407379c-2.861267,-1.460251 -5.571014,-3.133774 -6.122833,-3.574936c-5.75769,-4.603302 -13.079895,-5.648941 -19.273865,-4.12326c-5.340363,1.315445 -10.976227,2.776321 -13.333344,2.48111c-2.300934,-0.288193 -4.25708,-1.745773 -4.105621,-3.017059c0.277557,-2.329773 18.202026,-9.379852 22.485413,-8.843369c0.988068,0.123749 3.182831,-0.064789 4.814484,-0.434769c1.631622,-0.37001 6.277191,-0.650314 10.369934,-0.593597c7.073486,0.097961 17.062134,1.426285 24.042297,4.965546zm55.426193,-15.889771c4.732422,0.451157 11.492676,2.024429 14.54541,3.836258c2.671204,1.585388 6.900269,6.044037 6.770264,7.13559c-0.030273,0.254181 -1.315308,1.667755 -2.820557,3.187347c-2.789246,2.815948 -3.518921,4.442871 -2.156921,4.613449c1.180664,0.147888 5.192688,-3.809464 6.822754,-5.799377c1.847534,-2.255417 7.429932,-2.316711 12.825989,2.277924c2.645081,2.252243 5.488159,5.866257 5.154663,8.703552c-0.214233,1.822174 -3.221436,6.006241 -4.213135,5.882034c-0.342224,-0.042862 -1.890808,0.83844 -3.44696,1.949051c-1.556152,1.11055 -3.551208,2.284363 -4.419983,2.620743c-0.868774,0.336349 -1.677124,0.591537 -1.79425,0.568863c-0.117065,-0.022644 -1.546387,-1.579117 -3.212708,-3.515686c-1.666321,-1.9366 -4.16925,-3.112625 -5.94696,-3.40184c-1.491882,-0.242752 -3.849731,-0.560181 -5.08844,-1.006714c-3.25,-1.171646 -3.908081,-2.643158 -5.328308,-4.378098c-1.501099,-1.833817 -3.435242,-2.724701 -5.819519,-3.529221c-2.62323,-0.885178 -4.461121,-0.26712 -5.274109,-1.07341c-1.098389,-1.089371 0.954712,-0.160446 2.028198,-4.188507c0.652893,-2.449539 0.423035,-4.198303 0.486145,-6.42363c0.07251,-2.55574 -1.74884,-5.89624 -3.322388,-6.093323c-0.495605,-0.062073 -0.907471,-0.378357 -0.866943,-0.719009c0.091858,-0.770676 2.238281,-0.916687 5.077759,-0.645996zm44.768066,65.691818c-1.789612,-0.040527 -3.137451,1.532745 -4.080383,6.553726c-0.86676,4.615005 -0.87915,5.968628 -0.127258,7.065277c0.510681,0.744766 1.453918,1.403015 2.085754,1.482147c2.41156,0.302032 3.797668,-2.189453 5.367798,-9.578491c0.100098,-0.470932 0.39325,-1.301605 0.464478,-1.900024c0.061768,-0.518417 0.089722,-0.900391 0.026001,-1.217667c0.000671,-0.024673 0.00708,-0.036301 0.007141,-0.06015c-0.012939,-0.055069 -0.018799,-0.137238 -0.03717,-0.18779c-0.071411,-0.831619 0.040527,-1.206131 -1.501709,-1.808167c-0.897156,-0.350235 -1.608154,-0.335342 -2.204651,-0.348862zm-313.950851,34.038315c1.692902,0.212036 11.124023,7.58989 11.910461,11.063766c1.91156,8.443665 11.434357,19.112488 21.805328,20.411438c2.985535,0.373932 7.474792,0.860901 8.979523,0.426849c3.326019,-0.959473 5.063751,-1.056854 5.848145,-0.84552c1.271912,0.342651 1.651978,3.182159 0.822754,3.817596c-1.146027,0.878235 -6.268494,2.973755 -11.93988,2.77771c-8.421814,-0.291046 -16.100952,-3.637238 -29.256378,-15.732178c-1.914169,-1.759918 -4.803513,-6.755127 -5.145981,-7.432846c-2.209824,-4.373184 -4.322937,-9.126511 -4.505219,-12.047409c-0.152771,-2.44812 -0.049759,-2.631134 1.481247,-2.439407zm194.407104,72.208206c0.913696,0.047272 1.562286,0.930206 2.829437,2.735138l2.281372,3.337982l8.562775,0.584076c6.543365,0.476532 9.830414,0.347626 14.174225,-0.544403l5.670135,-1.121185l3.650696,2.837982c3.511627,2.777466 5.753723,6.373383 4.608398,7.292145c-0.716858,0.575043 -4.263947,0.108032 -7.442413,-0.993195c-2.994019,-1.037292 -3.20343,-0.464111 -1.243958,3.445862c0.777435,1.551331 1.269562,3.248169 1.095245,3.799896c-0.486694,1.540497 -1.416687,1.364197 -4.891449,-0.917908c-4.053955,-2.662415 -9.701752,-3.452728 -18.617493,-2.636993c-6.435547,0.588806 -6.452484,0.58667 -8.916016,-1.116699c-2.937866,-2.031372 -7.347839,-2.673431 -11.461182,-1.740692c-2.608948,0.591614 -3.192413,0.495667 -4.751312,-0.595093c-3.382111,-2.366425 -3.037262,-6.6362 0.771606,-9.9758c2.469025,-2.164825 2.703766,-2.225555 4.240845,-1.117065c1.515533,1.092957 1.836365,0.986664 4.81311,-0.923279c2.508667,-1.609619 3.71225,-2.398071 4.625977,-2.350769zm139.266891,-108.193329c-1.200439,-2.00058 -3.39093,-2.360107 -4.47229,-2.221527c-2.884827,0.369812 -2.383057,1.620041 -2.240173,4.682617c0.069275,1.484909 -0.047119,4.152084 -0.291565,5.945908c-0.35083,2.574799 -0.183044,3.475067 0.810425,4.191528c2.003174,1.44458 2.276978,0.242432 5.53833,0.081451c3.261353,-0.160995 3.668396,-3.455048 3.149353,-5.612c-0.519043,-2.156952 -1.14502,-4.819824 -2.49408,-7.067978z"/>
    <path fill="black" fill-opacity="0.941176" stroke-width="1.017746" stroke-miterlimit="4" d="m258.076843,34.771896c-1.168091,-0.176468 -2.43425,-0.277084 -3.232285,0.709259c-0.643066,0.794769 -2.321075,4.272842 -2.561584,6.230026c-0.240479,1.957184 -1.139709,4.253433 -2.134125,6.420975c-2.233185,4.867752 -2.67395,10.231277 -1.994659,12.027893c0.402222,1.063766 0.697021,1.22612 1.526459,0.679535c1.463806,-0.964569 6.307648,-9.720505 6.484634,-11.206177c0.079468,-0.667496 3.9776,-5.936813 4.831604,-7.826599c1.536865,-3.400742 1.526001,-3.443039 0.161255,-5.351761c-0.887329,-1.240952 -1.913147,-1.506653 -3.081299,-1.683151z" id="path1884"/>
    <path fill="black" fill-opacity="0.941176" stroke-width="1.017746" stroke-miterlimit="4" d="m247.396072,67.024216c-0.464905,0.036804 -1.163177,0.439575 -2.166351,1.193756c-1.657745,1.246277 -2.726685,4.353455 -1.846649,5.506943c1.415436,1.85527 3.342316,0.205124 4.314331,-3.732803c0.513031,-2.078415 0.473511,-3.029205 -0.301331,-2.967896z" id="path1878"/>
    <path fill="black" fill-opacity="0.941176" stroke-width="1.017746" stroke-miterlimit="4" d="m258.323608,84.719376c0.736328,-0.424744 4.377258,-2.866058 0.966919,-3.477325c-7.868637,-0.958145 -7.8134,12.993439 -6.721848,14.889938c1.391754,2.418076 2.445282,-6.264221 2.674927,-7.670212c0.265808,-1.627335 1.197617,-2.656662 3.080002,-3.742401z" id="path1876"/>
    <path fill="black" fill-opacity="0.941176" stroke-width="1.017746" stroke-miterlimit="4" d="m260.420959,93.359207c0.125977,-1.101349 1.008789,-3.906006 1.90155,-5.067505c1.417969,-1.844833 4.727234,-2.582031 5.059814,-4.346619c0.651855,-3.458649 -9.076111,1.989914 -9.934143,5.133911c-0.855957,3.136566 -0.782288,6.322144 -0.746277,8.048889c0.107239,5.138824 3.520996,-2.037338 3.719055,-3.768677z" id="path1934"/>
   </g>
  </g>
 </g>
</svg>